PathFileType	4	(X/Y/Z)	/Users/niels/Desktop/University/Third Semester/Perception and Action/Exam/Gymnastics Motion Tracking/Code for Gym Tracking/Analyzed Data/Webcam_Backflip/id8_3_pure_Sports2D/id8_3_pure_Sports2D_px_person00.trc
DataRate	CameraRate	NumFrames	NumMarkers	Units	OrigDataRate	OrigDataStartFrame	OrigNumFrames
29.81132075471698	29.81132075471698	10	22	m	29.81132075471698	79	159
Frame#	Time	Hip			RHip			RKnee			RAnkle			RBigToe			RSmallToe			RHeel			LHip			LKnee			LAnkle			LBigToe			LSmallToe			LHeel			Neck			Head			Nose			RShoulder			RElbow			RWrist			LShoulder			LElbow			LWrist		
		X1	Y1	Z1	X2	Y2	Z2	X3	Y3	Z3	X4	Y4	Z4	X5	Y5	Z5	X6	Y6	Z6	X7	Y7	Z7	X8	Y8	Z8	X9	Y9	Z9	X10	Y10	Z10	X11	Y11	Z11	X12	Y12	Z12	X13	Y13	Z13	X14	Y14	Z14	X15	Y15	Z15	X16	Y16	Z16	X17	Y17	Z17	X18	Y18	Z18	X19	Y19	Z19	X20	Y20	Z20	X21	Y21	Z21	X22	Y22	Z22
79	2.65	0.8588186840459248	-0.545006987892617	0.0	0.8571046610328907	-0.5451343559961274	0.0	0.8876766943828619	-0.6300953422017539	0.0	0.8409356656133522	-0.7171492807033585	0.0	0.8745917753340129	-0.7452590099959697	0.0	0.8618810131872146	-0.7463145959501212	0.0	0.8285057528463387	-0.7288171898210064	0.0	0.8609595821884376	-0.5439938268007916	0.0	0.892281663353924	-0.628661219400006	0.0	0.8453987869641164	-0.7144882577029793	0.0	0.8766879625230316	-0.7422328666644538	0.0	0.8726225213382656	-0.7380612476421775	0.0	0.8332347825320174	-0.7236801432600097	0.0	0.8686556047607586	-0.41274501695645277	0.0	0.8890505334961065	-0.3542680949200958	0.0	0.8996509895754605	-0.38484330797960375	0.0	0.8579750486901117	-0.4319414027237763	0.0	0.8401687144657612	-0.4905788080808702	0.0	0.8419349434417547	-0.5500852122945129	0.0	0.8648523916376454	-0.43047567587149044	0.0	0.8508838393239493	-0.48920539441302624	0.0	0.8586429123590411	-0.5406837874647473	0.0
80	2.6835443037974684	0.8621459504381177	-0.5335503494294855	0.0	0.8600029499465033	-0.5341921210840859	0.0	0.8872588038110343	-0.6208152757200093	0.0	0.8502064857072963	-0.7129777560173128	0.0	0.8854481868092436	-0.7423610604552641	0.0	0.8716588088988905	-0.7436269763887666	0.0	0.8384233316176446	-0.7251348763138543	0.0	0.8652910894880633	-0.5329240270558679	0.0	0.8955088053798707	-0.6185494502847215	0.0	0.859394733023879	-0.7084337217235784	0.0	0.8900913496490609	-0.7381750805837134	0.0	0.88720769245321	-0.7338667049042238	0.0	0.8487618900111407	-0.7183397987210113	0.0	0.8725464772653239	-0.4009025042771386	0.0	0.8913033719299048	-0.3417385770562257	0.0	0.9026775687296296	-0.3721288892142736	0.0	0.8627934719585948	-0.42023109084976035	0.0	0.8453767666240227	-0.47837713841692375	0.0	0.8488081540868501	-0.5374134608760494	0.0	0.8679328539680499	-0.41915620806593606	0.0	0.8527085693772462	-0.4768073319939237	0.0	0.8612023836474957	-0.527372488674681	0.0
81	2.7170886075949365	0.8654489266634292	-0.5255769274830266	0.0	0.8627617734925423	-0.5266173703338107	0.0	0.8857300471541999	-0.6155007965835069	0.0	0.8588411732218725	-0.712176704100898	0.0	0.8952849126773105	-0.7424093288014587	0.0	0.880727728851362	-0.7438163251904752	0.0	0.8478578726120264	-0.7247895534675796	0.0	0.8697190917366574	-0.5253030745335723	0.0	0.8988730478952076	-0.6118565070069124	0.0	0.8755846797962236	-0.7046583048209596	0.0	0.9049543032424036	-0.7363445150698154	0.0	0.9034206420351222	-0.7317989878219079	0.0	0.8666932178262831	-0.7155963582370675	0.0	0.8766311537537023	-0.3929612481171099	0.0	0.8934317757734752	-0.33313177549782996	0.0	0.9058447704780939	-0.3635791906304514	0.0	0.8677885141587968	-0.41245218978648135	0.0	0.8509959986786789	-0.4703753292559874	0.0	0.8559180964064479	-0.5289325211435284	0.0	0.8713422459633198	-0.41163258083786614	0.0	0.8550713453286027	-0.46813896861346876	0.0	0.8639326356708292	-0.5182030733309636	0.0
82	2.750632911392405	0.868756271669804	-0.5215580373887558	0.0	0.8655615328916124	-0.5228082941042773	0.0	0.8838764517349286	-0.6141282892844578	0.0	0.8659940769289846	-0.7141633934803744	0.0	0.9029248314511082	-0.7448780632814119	0.0	0.8879513464793296	-0.7463274069430702	0.0	0.8557572284051222	-0.7271090114285482	0.0	0.8741795636097417	-0.5215647693676384	0.0	0.9027659614923396	-0.6087081372858095	0.0	0.8930654325951575	-0.7028634754710098	0.0	0.9206413096407957	-0.7360332566926039	0.0	0.9204885896359053	-0.731135347781405	0.0	0.8856670227868363	-0.7149027667374833	0.0	0.8807509340303278	-0.38903505283765477	0.0	0.8956517247126106	-0.32866655754658486	0.0	0.9091787326753463	-0.35946452761911935	0.0	0.8728270007722556	-0.40872732732485734	0.0	0.8568303422290066	-0.4667861541645603	0.0	0.8630297300009755	-0.5249895950001894	0.0	0.8749356434055467	-0.40800847042488275	0.0	0.8578716262084558	-0.46362827706357784	0.0	0.8665919597206576	-0.5137107114204549	0.0
83	2.784177215189873	0.8721194817498131	-0.52183799961199	0.0	0.8685422817110965	-0.523105136945368	0.0	0.8824371024563752	-0.6165135709284068	0.0	0.8711440832411328	-0.7185916906903419	0.0	0.9076132528364717	-0.749512481147875	0.0	0.8925723604656317	-0.7508875475038721	0.0	0.861367911409602	-0.7317439413158804	0.0	0.8786329914068407	-0.5219971671942335	0.0	0.9073893607929598	-0.6091967275470418	0.0	0.9107370078428527	-0.703249678448142	0.0	0.936608729397151	-0.7371118306020653	0.0	0.9376795175765863	-0.7318204905086011	0.0	0.9043873521620085	-0.716302380214256	0.0	0.8847125121215476	-0.38911814595225686	0.0	0.8980814659899748	-0.32831268992906265	0.0	0.91265785424156	-0.35969889768831614	0.0	0.8777259277188748	-0.409081307073035	0.0	0.8627113367960731	-0.4676862376390762	0.0	0.8701064032434894	-0.5255314283162039	0.0	0.8784371233746985	-0.4082876998214879	0.0	0.8606311467330519	-0.4635543568091904	0.0	0.8686016877689681	-0.5139329418918639	0.0
84	2.8177215189873417	0.8756436960324843	-0.5264912973892205	0.0	0.8718023579573548	-0.5276152522458376	0.0	0.8818170679878568	-0.622354091631364	0.0	0.8741083722010472	-0.7253233258108869	0.0	0.9091782832503301	-0.7560831892295721	0.0	0.8944420698852211	-0.757305117348077	0.0	0.8644120853715538	-0.7386238937052009	0.0	0.8831368156914867	-0.5266301335465713	0.0	0.9127268109110147	-0.6134164063297712	0.0	0.9275594663865501	-0.7063660541840874	0.0	0.9524203049718181	-0.7399873000664037	0.0	0.9543541233619386	-0.7344057246785367	0.0	0.9219118929166595	-0.7203128971184627	0.0	0.8883552810049283	-0.3930933289069068	0.0	0.900669883135521	-0.33188447430502344	0.0	0.9162075792043569	-0.3639077907293554	0.0	0.8822907770794814	-0.41340348634075885	0.0	0.8685014912110915	-0.47297235654615405	0.0	0.8771686213936107	-0.530249640344558	0.0	0.8816477376126532	-0.41239184378889676	0.0	0.8630132057790547	-0.46803637597269904	0.0	0.8695082586338257	-0.518578068776027	0.0
85	2.85126582278481	0.8794280561400554	-0.5352661913125214	0.0	0.8753532698829364	-0.5361386201453912	0.0	0.8819613572629964	-0.6312656489487116	0.0	0.8749565761866382	-0.7342064649022396	0.0	0.9079169328446609	-0.7641111195748893	0.0	0.8939240040422388	-0.7652222909371932	0.0	0.8650365741061071	-0.7476799656543497	0.0	0.8877634567436248	-0.5352305455953831	0.0	0.9185579782815572	-0.6213581816325308	0.0	0.9426117090663867	-0.7127534202582	0.0	0.9675170752747163	-0.7451567293606626	0.0	0.9698102294874238	-0.7395404043332582	0.0	0.9375158636238294	-0.727485751923651	0.0	0.8916225292380787	-0.4006762928123529	0.0	0.9032633637417625	-0.3391110975231874	0.0	0.9197400732323727	-0.3715514867166524	0.0	0.8863862289159884	-0.42139596329681184	0.0	0.8741160289495624	-0.48226929414745134	0.0	0.884215454855351	-0.5387290370145225	0.0	0.8845226917621256	-0.4200995740873681	0.0	0.865083860470158	-0.47686902454385943	0.0	0.8693473943509548	-0.5272302063592021	0.0
86	2.8848101265822783	0.8834747379073907	-0.5475454634503543	0.0	0.8791056148937825	-0.5481054350022831	0.0	0.8825237082920946	-0.6427216696524487	0.0	0.8739548726128915	-0.7448465338423931	0.0	0.9043886405104997	-0.7729224210432136	0.0	0.8916088244641023	-0.7740965806852874	0.0	0.8636670618959054	-0.7585206955645444	0.0	0.8924780578443489	-0.5472494594131615	0.0	0.9244821320981583	-0.6326695069901522	0.0	0.955055087428197	-0.7225631732144876	0.0	0.981034870016249	-0.7527203096953974	0.0	0.9831473340804989	-0.7474025001568232	0.0	0.9505169738436717	-0.7379440111295293	0.0	0.8945695824071008	-0.4113571229728443	0.0	0.9057312649688887	-0.3495971586256105	0.0	0.9231861613366525	-0.38202500339962703	0.0	0.8899725529272633	-0.43256411250843263	0.0	0.8795508490998442	-0.49486467504928083	0.0	0.891222824761637	-0.5503577033920811	0.0	0.8871333207564437	-0.4309583927536587	0.0	0.8671212394325769	-0.48934282933177553	0.0	0.8685332695587792	-0.5393383821155506	0.0
87	2.918354430379747	0.8876918890672241	-0.5623308030205801	0.0	0.8829471598639572	-0.5625557322619829	0.0	0.8831338011335678	-0.6559780200967249	0.0	0.8715515656742969	-0.75658242762468	0.0	0.8993001771483738	-0.7819011716388713	0.0	0.8880772841511421	-0.7833398643628962	0.0	0.8609302887830215	-0.7703962692952833	0.0	0.8971292591940129	-0.5617704655077649	0.0	0.9299671715536687	-0.6465235323130645	0.0	0.9641852930719502	-0.7352998161383171	0.0	0.9919610899176984	-0.7621718163029028	0.0	0.9934272120236465	-0.7574498066049122	0.0	0.9602696556579793	-0.7510987548229117	0.0	0.8973158260172436	-0.4243803033426464	0.0	0.9080378247167366	-0.36269804184939336	0.0	0.9264946946469013	-0.39465924620655524	0.0	0.8931127589844586	-0.4461798336528126	0.0	0.8848613669741887	-0.509740934212455	0.0	0.8981596462044205	-0.5642309473780278	0.0	0.8896490934110086	-0.4442318774191721	0.0	0.8694371020189198	-0.5043371539775718	0.0	0.8677022706406481	-0.5541313956330444	0.0
88	2.951898734177215	0.8919847701620665	-0.5783509639344296	0.0	0.8868455167755278	-0.5782686729747429	0.0	0.8835439773128703	-0.6701084568011424	0.0	0.8683544134254239	-0.7686570403269052	0.0	0.8934782581604453	-0.7906291210330284	0.0	0.8838489478999519	-0.792443063645161	0.0	0.857599010989244	-0.7824526729744611	0.0	0.9015571338203461	-0.5775952958594452	0.0	0.9344771243921685	-0.6617421551753944	0.0	0.9696398129401957	-0.7498018335799259	0.0	0.9995556718426812	-0.7725058251805641	0.0	1.0000574289774917	-0.7685749372024793	0.0	0.9663645732768263	-0.7656936891355968	0.0	0.9000082535436897	-0.4387335729716867	0.0	0.9102320739609021	-0.3774363027268242	0.0	0.9296340014983697	-0.4086271223536544	0.0	0.8959556175076422	-0.4612075766025191	0.0	0.8901050221074577	-0.525678891329398	0.0	0.9050188757615647	-0.5792732838814849	0.0	0.8923017841773077	-0.45888353817841715	0.0	0.8723581246441915	-0.520552970019894	0.0	0.8677388165281517	-0.5705913395986537	0.0
